<mxfile host="drawio-plugin" modified="2021-05-11T18:14:44.314Z" agent="5.0 (X11; Linux x86_64) AppleWebKit/537.36 (KHTML, like Gecko) Chrome/87.0.4280.141 Safari/537.36" etag="4Kc6voRCrMVGQYWgsF6a" version="14.6.6" type="embed"><diagram name="Page-1" id="c4acf3e9-155e-7222-9cf6-157b1a14988f"><mxGraphModel dx="952" dy="363" grid="1" gridSize="10" guides="1" tooltips="1" connect="1" arrows="1" fold="1" page="1" pageScale="1" pageWidth="850" pageHeight="1100" background="#ffffff" math="0" shadow="0"><root><mxCell id="0"/><mxCell id="1" parent="0"/><mxCell id="17acba5748e5396b-1" value="Restaurant" style="shape=umlFrame;whiteSpace=wrap;html=1;rounded=0;shadow=0;comic=0;labelBackgroundColor=none;strokeWidth=1;fontFamily=Verdana;fontSize=10;align=center;" parent="1" vertex="1"><mxGeometry x="20" y="20" width="1370" height="1090" as="geometry"/></mxCell><mxCell id="5d2195bd80daf111-18" value="&lt;p style=&quot;margin: 0px ; margin-top: 4px ; text-align: center&quot;&gt;&lt;i&gt;&amp;lt;&amp;lt;Abstract&amp;nbsp;class&amp;gt;&amp;gt;&lt;/i&gt;&lt;br&gt;&lt;b&gt;Person&lt;/b&gt;&lt;/p&gt;&lt;hr size=&quot;1&quot;&gt;&lt;p style=&quot;margin: 0px ; margin-left: 4px&quot;&gt;# name: str&lt;br&gt;# surname: str&lt;/p&gt;&lt;p style=&quot;margin: 0px ; margin-left: 4px&quot;&gt;&lt;br&gt;&lt;/p&gt;&lt;p style=&quot;margin: 0px ; margin-left: 4px&quot;&gt;&lt;br&gt;&lt;/p&gt;" style="verticalAlign=top;align=left;overflow=fill;fontSize=12;fontFamily=Helvetica;html=1;rounded=0;shadow=0;comic=0;labelBackgroundColor=none;strokeWidth=1" parent="1" vertex="1"><mxGeometry x="560" y="50" width="260" height="90" as="geometry"/></mxCell><mxCell id="_PCVCd6CJYZOc_GiLcy5-2" value="Customer" style="swimlane;fontStyle=1;align=center;verticalAlign=top;childLayout=stackLayout;horizontal=1;startSize=26;horizontalStack=0;resizeParent=1;resizeParentMax=0;resizeLast=0;collapsible=1;marginBottom=0;" parent="1" vertex="1"><mxGeometry x="300" y="330" width="350" height="76" as="geometry"/></mxCell><mxCell id="_PCVCd6CJYZOc_GiLcy5-4" value="" style="line;strokeWidth=1;fillColor=none;align=left;verticalAlign=middle;spacingTop=-1;spacingLeft=3;spacingRight=3;rotatable=0;labelPosition=right;points=[];portConstraint=eastwest;" parent="_PCVCd6CJYZOc_GiLcy5-2" vertex="1"><mxGeometry y="26" width="350" height="8" as="geometry"/></mxCell><mxCell id="_PCVCd6CJYZOc_GiLcy5-5" value="&#10;+ set_delivery(self, address: str, phone: str) : Delivery" style="text;strokeColor=none;fillColor=none;align=left;verticalAlign=top;spacingLeft=4;spacingRight=4;overflow=hidden;rotatable=0;points=[[0,0.5],[1,0.5]];portConstraint=eastwest;" parent="_PCVCd6CJYZOc_GiLcy5-2" vertex="1"><mxGeometry y="34" width="350" height="42" as="geometry"/></mxCell><mxCell id="_PCVCd6CJYZOc_GiLcy5-6" value="Discount" style="swimlane;fontStyle=1;align=center;verticalAlign=top;childLayout=stackLayout;horizontal=1;startSize=26;horizontalStack=0;resizeParent=1;resizeParentMax=0;resizeLast=0;collapsible=1;marginBottom=0;" parent="1" vertex="1"><mxGeometry x="1140" y="650" width="200" height="78" as="geometry"/></mxCell><mxCell id="_PCVCd6CJYZOc_GiLcy5-7" value="- description: str&#10;+ percent: float&#10;" style="text;strokeColor=none;fillColor=none;align=left;verticalAlign=top;spacingLeft=4;spacingRight=4;overflow=hidden;rotatable=0;points=[[0,0.5],[1,0.5]];portConstraint=eastwest;" parent="_PCVCd6CJYZOc_GiLcy5-6" vertex="1"><mxGeometry y="26" width="200" height="44" as="geometry"/></mxCell><mxCell id="_PCVCd6CJYZOc_GiLcy5-8" value="" style="line;strokeWidth=1;fillColor=none;align=left;verticalAlign=middle;spacingTop=-1;spacingLeft=3;spacingRight=3;rotatable=0;labelPosition=right;points=[];portConstraint=eastwest;" parent="_PCVCd6CJYZOc_GiLcy5-6" vertex="1"><mxGeometry y="70" width="200" height="8" as="geometry"/></mxCell><mxCell id="_PCVCd6CJYZOc_GiLcy5-11" value="Waiter" style="swimlane;fontStyle=1;align=center;verticalAlign=top;childLayout=stackLayout;horizontal=1;startSize=26;horizontalStack=0;resizeParent=1;resizeParentMax=0;resizeLast=0;collapsible=1;marginBottom=0;" parent="1" vertex="1"><mxGeometry x="30" y="230" width="350" height="88" as="geometry"/></mxCell><mxCell id="_PCVCd6CJYZOc_GiLcy5-12" value="&#10;+ working_now: bool&#10; " style="text;strokeColor=none;fillColor=none;align=left;verticalAlign=top;spacingLeft=4;spacingRight=4;overflow=hidden;rotatable=0;points=[[0,0.5],[1,0.5]];portConstraint=eastwest;" parent="_PCVCd6CJYZOc_GiLcy5-11" vertex="1"><mxGeometry y="26" width="350" height="54" as="geometry"/></mxCell><mxCell id="_PCVCd6CJYZOc_GiLcy5-13" value="" style="line;strokeWidth=1;fillColor=none;align=left;verticalAlign=middle;spacingTop=-1;spacingLeft=3;spacingRight=3;rotatable=0;labelPosition=right;points=[];portConstraint=eastwest;" parent="_PCVCd6CJYZOc_GiLcy5-11" vertex="1"><mxGeometry y="80" width="350" height="8" as="geometry"/></mxCell><mxCell id="_PCVCd6CJYZOc_GiLcy5-18" value="" style="endArrow=block;dashed=1;endFill=0;endSize=12;html=1;exitX=0.5;exitY=0;exitDx=0;exitDy=0;entryX=0.5;entryY=1;entryDx=0;entryDy=0;" parent="1" source="_PCVCd6CJYZOc_GiLcy5-2" target="5d2195bd80daf111-18" edge="1"><mxGeometry width="160" relative="1" as="geometry"><mxPoint x="300" y="220" as="sourcePoint"/><mxPoint x="460" y="220" as="targetPoint"/><Array as="points"/></mxGeometry></mxCell><mxCell id="_PCVCd6CJYZOc_GiLcy5-19" value="" style="endArrow=block;dashed=1;endFill=0;endSize=12;html=1;entryX=0.422;entryY=1.015;entryDx=0;entryDy=0;exitX=0.5;exitY=0;exitDx=0;exitDy=0;entryPerimeter=0;" parent="1" source="_PCVCd6CJYZOc_GiLcy5-11" target="5d2195bd80daf111-18" edge="1"><mxGeometry width="160" relative="1" as="geometry"><mxPoint x="400" y="260" as="sourcePoint"/><mxPoint x="560" y="260" as="targetPoint"/></mxGeometry></mxCell><mxCell id="5BSvQCHA-vjKsZ0vc92s-9" value="Order" style="swimlane;fontStyle=1;align=center;verticalAlign=top;childLayout=stackLayout;horizontal=1;startSize=26;horizontalStack=0;resizeParent=1;resizeParentMax=0;resizeLast=0;collapsible=1;marginBottom=0;" parent="1" vertex="1"><mxGeometry x="860" y="730" width="220" height="170" as="geometry"/></mxCell><mxCell id="5BSvQCHA-vjKsZ0vc92s-10" value="+ id_order: int (class attribute)&#10;- id: int&#10;- customer: Customer&#10;- positions_order: Tiple[PositionInOrder]&#10;+ status: str&#10;+ waiter: Waiter &#10;- delivery: Delivery" style="text;strokeColor=none;fillColor=none;align=left;verticalAlign=top;spacingLeft=4;spacingRight=4;overflow=hidden;rotatable=0;points=[[0,0.5],[1,0.5]];portConstraint=eastwest;" parent="5BSvQCHA-vjKsZ0vc92s-9" vertex="1"><mxGeometry y="26" width="220" height="104" as="geometry"/></mxCell><mxCell id="5BSvQCHA-vjKsZ0vc92s-11" value="" style="line;strokeWidth=1;fillColor=none;align=left;verticalAlign=middle;spacingTop=-1;spacingLeft=3;spacingRight=3;rotatable=0;labelPosition=right;points=[];portConstraint=eastwest;" parent="5BSvQCHA-vjKsZ0vc92s-9" vertex="1"><mxGeometry y="130" width="220" height="8" as="geometry"/></mxCell><mxCell id="5BSvQCHA-vjKsZ0vc92s-12" value="+ calculate_total_sum(self) :Decimal" style="text;strokeColor=none;fillColor=none;align=left;verticalAlign=top;spacingLeft=4;spacingRight=4;overflow=hidden;rotatable=0;points=[[0,0.5],[1,0.5]];portConstraint=eastwest;" parent="5BSvQCHA-vjKsZ0vc92s-9" vertex="1"><mxGeometry y="138" width="220" height="32" as="geometry"/></mxCell><mxCell id="5BSvQCHA-vjKsZ0vc92s-13" value="Dish" style="swimlane;fontStyle=1;align=center;verticalAlign=top;childLayout=stackLayout;horizontal=1;startSize=26;horizontalStack=0;resizeParent=1;resizeParentMax=0;resizeLast=0;collapsible=1;marginBottom=0;" parent="1" vertex="1"><mxGeometry x="315" y="570" width="320" height="158" as="geometry"/></mxCell><mxCell id="5BSvQCHA-vjKsZ0vc92s-14" value="+ dishes: Dict[str, List[str]] (class attribute)&#10;- name: str&#10;- ingredients: List[str]&#10;+ price: Decimal&#10;+ category: str" style="text;strokeColor=none;fillColor=none;align=left;verticalAlign=top;spacingLeft=4;spacingRight=4;overflow=hidden;rotatable=0;points=[[0,0.5],[1,0.5]];portConstraint=eastwest;" parent="5BSvQCHA-vjKsZ0vc92s-13" vertex="1"><mxGeometry y="26" width="320" height="84" as="geometry"/></mxCell><mxCell id="5BSvQCHA-vjKsZ0vc92s-15" value="" style="line;strokeWidth=1;fillColor=none;align=left;verticalAlign=middle;spacingTop=-1;spacingLeft=3;spacingRight=3;rotatable=0;labelPosition=right;points=[];portConstraint=eastwest;" parent="5BSvQCHA-vjKsZ0vc92s-13" vertex="1"><mxGeometry y="110" width="320" height="8" as="geometry"/></mxCell><mxCell id="5BSvQCHA-vjKsZ0vc92s-16" value="&#10;+ filter_by_category(category: str): List[str] (classmethod)&#10;&#10;&#10;" style="text;strokeColor=none;fillColor=none;align=left;verticalAlign=top;spacingLeft=4;spacingRight=4;overflow=hidden;rotatable=0;points=[[0,0.5],[1,0.5]];portConstraint=eastwest;" parent="5BSvQCHA-vjKsZ0vc92s-13" vertex="1"><mxGeometry y="118" width="320" height="40" as="geometry"/></mxCell><mxCell id="5BSvQCHA-vjKsZ0vc92s-21" value="PositionInOrder" style="swimlane;fontStyle=1;align=center;verticalAlign=top;childLayout=stackLayout;horizontal=1;startSize=26;horizontalStack=0;resizeParent=1;resizeParentMax=0;resizeLast=0;collapsible=1;marginBottom=0;" parent="1" vertex="1"><mxGeometry x="580" y="750" width="160" height="88" as="geometry"/></mxCell><mxCell id="5BSvQCHA-vjKsZ0vc92s-22" value="+ dish: Dish&#10;+ amount: int&#10;+ price: Decimal" style="text;strokeColor=none;fillColor=none;align=left;verticalAlign=top;spacingLeft=4;spacingRight=4;overflow=hidden;rotatable=0;points=[[0,0.5],[1,0.5]];portConstraint=eastwest;" parent="5BSvQCHA-vjKsZ0vc92s-21" vertex="1"><mxGeometry y="26" width="160" height="54" as="geometry"/></mxCell><mxCell id="5BSvQCHA-vjKsZ0vc92s-23" value="" style="line;strokeWidth=1;fillColor=none;align=left;verticalAlign=middle;spacingTop=-1;spacingLeft=3;spacingRight=3;rotatable=0;labelPosition=right;points=[];portConstraint=eastwest;" parent="5BSvQCHA-vjKsZ0vc92s-21" vertex="1"><mxGeometry y="80" width="160" height="8" as="geometry"/></mxCell><mxCell id="5BSvQCHA-vjKsZ0vc92s-70" value="Delivery" style="swimlane;fontStyle=1;align=center;verticalAlign=top;childLayout=stackLayout;horizontal=1;startSize=26;horizontalStack=0;resizeParent=1;resizeParentMax=0;resizeLast=0;collapsible=1;marginBottom=0;" parent="1" vertex="1"><mxGeometry x="200" y="452" width="260" height="98" as="geometry"/></mxCell><mxCell id="5BSvQCHA-vjKsZ0vc92s-71" value="- address: str&#10;- phone: str&#10;- customer: Customer" style="text;strokeColor=none;fillColor=none;align=left;verticalAlign=top;spacingLeft=4;spacingRight=4;overflow=hidden;rotatable=0;points=[[0,0.5],[1,0.5]];portConstraint=eastwest;" parent="5BSvQCHA-vjKsZ0vc92s-70" vertex="1"><mxGeometry y="26" width="260" height="64" as="geometry"/></mxCell><mxCell id="5BSvQCHA-vjKsZ0vc92s-72" value="" style="line;strokeWidth=1;fillColor=none;align=left;verticalAlign=middle;spacingTop=-1;spacingLeft=3;spacingRight=3;rotatable=0;labelPosition=right;points=[];portConstraint=eastwest;" parent="5BSvQCHA-vjKsZ0vc92s-70" vertex="1"><mxGeometry y="90" width="260" height="8" as="geometry"/></mxCell><mxCell id="QzNCbh0KWiswrqac5RrD-1" value="Cook" style="swimlane;fontStyle=1;align=center;verticalAlign=top;childLayout=stackLayout;horizontal=1;startSize=26;horizontalStack=0;resizeParent=1;resizeParentMax=0;resizeLast=0;collapsible=1;marginBottom=0;" parent="1" vertex="1"><mxGeometry x="680" y="280" width="230" height="120" as="geometry"/></mxCell><mxCell id="QzNCbh0KWiswrqac5RrD-2" value="- position: str" style="text;strokeColor=none;fillColor=none;align=left;verticalAlign=top;spacingLeft=4;spacingRight=4;overflow=hidden;rotatable=0;points=[[0,0.5],[1,0.5]];portConstraint=eastwest;" parent="QzNCbh0KWiswrqac5RrD-1" vertex="1"><mxGeometry y="26" width="230" height="26" as="geometry"/></mxCell><mxCell id="QzNCbh0KWiswrqac5RrD-3" value="" style="line;strokeWidth=1;fillColor=none;align=left;verticalAlign=middle;spacingTop=-1;spacingLeft=3;spacingRight=3;rotatable=0;labelPosition=right;points=[];portConstraint=eastwest;" parent="QzNCbh0KWiswrqac5RrD-1" vertex="1"><mxGeometry y="52" width="230" height="8" as="geometry"/></mxCell><mxCell id="QzNCbh0KWiswrqac5RrD-4" value="+ add_dish(self, name: str, available: bool, &#10;category: str, *ingredients: str) : None" style="text;strokeColor=none;fillColor=none;align=left;verticalAlign=top;spacingLeft=4;spacingRight=4;overflow=hidden;rotatable=0;points=[[0,0.5],[1,0.5]];portConstraint=eastwest;" parent="QzNCbh0KWiswrqac5RrD-1" vertex="1"><mxGeometry y="60" width="230" height="60" as="geometry"/></mxCell><mxCell id="duW4ZWPWgtIntE0aElzq-1" value="Admin" style="swimlane;fontStyle=1;align=center;verticalAlign=top;childLayout=stackLayout;horizontal=1;startSize=26;horizontalStack=0;resizeParent=1;resizeParentMax=0;resizeLast=0;collapsible=1;marginBottom=0;" parent="1" vertex="1"><mxGeometry x="950" y="190" width="350" height="180" as="geometry"/></mxCell><mxCell id="duW4ZWPWgtIntE0aElzq-3" value="" style="line;strokeWidth=1;fillColor=none;align=left;verticalAlign=middle;spacingTop=-1;spacingLeft=3;spacingRight=3;rotatable=0;labelPosition=right;points=[];portConstraint=eastwest;" parent="duW4ZWPWgtIntE0aElzq-1" vertex="1"><mxGeometry y="26" width="350" height="8" as="geometry"/></mxCell><mxCell id="duW4ZWPWgtIntE0aElzq-4" value="+ @staticmethod &#10;create_position(dish: Dish, amount: int): PositionInOrder&#10;+ @staticmethod&#10;   create_order(name: str, surname: str, address: str, phone: str,&#10;                       *positions: PositionInOrder) : Order&#10;+ @staticmethod&#10;    set_waiter(order: Order, set_waiter: Waiter) :None&#10;+ @staticmethod&#10;    change_status(order: Order, new_status: str) : None" style="text;strokeColor=none;fillColor=none;align=left;verticalAlign=top;spacingLeft=4;spacingRight=4;overflow=hidden;rotatable=0;points=[[0,0.5],[1,0.5]];portConstraint=eastwest;" parent="duW4ZWPWgtIntE0aElzq-1" vertex="1"><mxGeometry y="34" width="350" height="146" as="geometry"/></mxCell><mxCell id="duW4ZWPWgtIntE0aElzq-5" value="" style="endArrow=block;dashed=1;endFill=0;endSize=12;html=1;" parent="1" source="QzNCbh0KWiswrqac5RrD-1" target="5d2195bd80daf111-18" edge="1"><mxGeometry width="160" relative="1" as="geometry"><mxPoint x="440" y="150" as="sourcePoint"/><mxPoint x="600" y="150" as="targetPoint"/><Array as="points"/></mxGeometry></mxCell><mxCell id="duW4ZWPWgtIntE0aElzq-6" value="" style="endArrow=block;dashed=1;endFill=0;endSize=12;html=1;exitX=0.004;exitY=0.186;exitDx=0;exitDy=0;exitPerimeter=0;entryX=0.823;entryY=0.994;entryDx=0;entryDy=0;entryPerimeter=0;" parent="1" source="duW4ZWPWgtIntE0aElzq-1" target="5d2195bd80daf111-18" edge="1"><mxGeometry width="160" relative="1" as="geometry"><mxPoint x="440" y="150" as="sourcePoint"/><mxPoint x="600" y="150" as="targetPoint"/></mxGeometry></mxCell><mxCell id="EhmROlJ3hY4OZ1xslPFw-2" value="" style="endArrow=open;endFill=1;endSize=12;html=1;entryX=0.75;entryY=0;entryDx=0;entryDy=0;" parent="1" source="duW4ZWPWgtIntE0aElzq-4" target="5BSvQCHA-vjKsZ0vc92s-21" edge="1"><mxGeometry width="160" relative="1" as="geometry"><mxPoint x="560" y="570" as="sourcePoint"/><mxPoint x="720" y="570" as="targetPoint"/></mxGeometry></mxCell><mxCell id="EhmROlJ3hY4OZ1xslPFw-3" value="" style="endArrow=open;endFill=1;endSize=12;html=1;" parent="1" source="duW4ZWPWgtIntE0aElzq-4" target="5BSvQCHA-vjKsZ0vc92s-13" edge="1"><mxGeometry width="160" relative="1" as="geometry"><mxPoint x="560" y="560" as="sourcePoint"/><mxPoint x="720" y="560" as="targetPoint"/></mxGeometry></mxCell><mxCell id="EhmROlJ3hY4OZ1xslPFw-4" value="" style="endArrow=open;endFill=1;endSize=12;html=1;" parent="1" source="duW4ZWPWgtIntE0aElzq-4" target="5BSvQCHA-vjKsZ0vc92s-9" edge="1"><mxGeometry width="160" relative="1" as="geometry"><mxPoint x="560" y="570" as="sourcePoint"/><mxPoint x="720" y="570" as="targetPoint"/></mxGeometry></mxCell><mxCell id="EhmROlJ3hY4OZ1xslPFw-5" value="" style="endArrow=diamondThin;endFill=0;endSize=24;html=1;entryX=0;entryY=0.5;entryDx=0;entryDy=0;exitX=-0.016;exitY=0.763;exitDx=0;exitDy=0;exitPerimeter=0;" parent="1" source="5BSvQCHA-vjKsZ0vc92s-14" target="5BSvQCHA-vjKsZ0vc92s-22" edge="1"><mxGeometry width="160" relative="1" as="geometry"><mxPoint x="560" y="680" as="sourcePoint"/><mxPoint x="720" y="680" as="targetPoint"/><Array as="points"><mxPoint x="260" y="660"/><mxPoint x="260" y="803"/></Array></mxGeometry></mxCell><mxCell id="EhmROlJ3hY4OZ1xslPFw-6" value="1" style="edgeLabel;html=1;align=center;verticalAlign=middle;resizable=0;points=[];" parent="EhmROlJ3hY4OZ1xslPFw-5" vertex="1" connectable="0"><mxGeometry x="-0.9059" y="-1" relative="1" as="geometry"><mxPoint as="offset"/></mxGeometry></mxCell><mxCell id="EhmROlJ3hY4OZ1xslPFw-7" value="1..*" style="edgeLabel;html=1;align=center;verticalAlign=middle;resizable=0;points=[];" parent="EhmROlJ3hY4OZ1xslPFw-5" vertex="1" connectable="0"><mxGeometry x="0.7265" y="1" relative="1" as="geometry"><mxPoint as="offset"/></mxGeometry></mxCell><mxCell id="EhmROlJ3hY4OZ1xslPFw-8" value="" style="endArrow=diamondThin;endFill=0;endSize=24;html=1;entryX=0;entryY=0.5;entryDx=0;entryDy=0;" parent="1" target="5BSvQCHA-vjKsZ0vc92s-10" edge="1"><mxGeometry width="160" relative="1" as="geometry"><mxPoint x="740" y="806" as="sourcePoint"/><mxPoint x="920" y="680" as="targetPoint"/></mxGeometry></mxCell><mxCell id="EhmROlJ3hY4OZ1xslPFw-9" value="1..*" style="edgeLabel;html=1;align=center;verticalAlign=middle;resizable=0;points=[];" parent="EhmROlJ3hY4OZ1xslPFw-8" vertex="1" connectable="0"><mxGeometry x="-0.6942" y="-1" relative="1" as="geometry"><mxPoint as="offset"/></mxGeometry></mxCell><mxCell id="EhmROlJ3hY4OZ1xslPFw-10" value="1" style="edgeLabel;html=1;align=center;verticalAlign=middle;resizable=0;points=[];" parent="EhmROlJ3hY4OZ1xslPFw-8" vertex="1" connectable="0"><mxGeometry x="0.2615" y="-1" relative="1" as="geometry"><mxPoint as="offset"/></mxGeometry></mxCell><mxCell id="EhmROlJ3hY4OZ1xslPFw-11" value="1" style="endArrow=diamondThin;endFill=1;endSize=24;html=1;exitX=0;exitY=0.5;exitDx=0;exitDy=0;entryX=1;entryY=0.5;entryDx=0;entryDy=0;" parent="1" source="_PCVCd6CJYZOc_GiLcy5-6" target="5BSvQCHA-vjKsZ0vc92s-10" edge="1"><mxGeometry x="0.2402" width="160" relative="1" as="geometry"><mxPoint x="760" y="660" as="sourcePoint"/><mxPoint x="920" y="660" as="targetPoint"/><Array as="points"><mxPoint x="1140" y="808"/><mxPoint x="1120" y="808"/></Array><mxPoint as="offset"/></mxGeometry></mxCell><mxCell id="EhmROlJ3hY4OZ1xslPFw-12" value="1" style="edgeLabel;html=1;align=center;verticalAlign=middle;resizable=0;points=[];" parent="EhmROlJ3hY4OZ1xslPFw-11" vertex="1" connectable="0"><mxGeometry x="-0.6491" y="1" relative="1" as="geometry"><mxPoint x="-1" y="29" as="offset"/></mxGeometry></mxCell><mxCell id="EhmROlJ3hY4OZ1xslPFw-15" value="" style="endArrow=diamondThin;endFill=0;endSize=24;html=1;exitX=0.043;exitY=0.653;exitDx=0;exitDy=0;exitPerimeter=0;entryX=0;entryY=0.75;entryDx=0;entryDy=0;" parent="1" source="5BSvQCHA-vjKsZ0vc92s-72" target="5BSvQCHA-vjKsZ0vc92s-9" edge="1"><mxGeometry width="160" relative="1" as="geometry"><mxPoint x="760" y="680" as="sourcePoint"/><mxPoint x="920" y="680" as="targetPoint"/><Array as="points"><mxPoint x="211" y="858"/></Array></mxGeometry></mxCell><mxCell id="EhmROlJ3hY4OZ1xslPFw-16" value="1" style="edgeLabel;html=1;align=center;verticalAlign=middle;resizable=0;points=[];" parent="EhmROlJ3hY4OZ1xslPFw-15" vertex="1" connectable="0"><mxGeometry x="-0.9333" relative="1" as="geometry"><mxPoint as="offset"/></mxGeometry></mxCell><mxCell id="EhmROlJ3hY4OZ1xslPFw-17" value="1..*" style="edgeLabel;html=1;align=center;verticalAlign=middle;resizable=0;points=[];" parent="EhmROlJ3hY4OZ1xslPFw-15" vertex="1" connectable="0"><mxGeometry x="0.8085" relative="1" as="geometry"><mxPoint as="offset"/></mxGeometry></mxCell><mxCell id="EhmROlJ3hY4OZ1xslPFw-18" value="" style="endArrow=diamondThin;endFill=0;endSize=24;html=1;exitX=0.353;exitY=0.431;exitDx=0;exitDy=0;exitPerimeter=0;entryX=0;entryY=0.5;entryDx=0;entryDy=0;" parent="1" source="_PCVCd6CJYZOc_GiLcy5-13" target="5BSvQCHA-vjKsZ0vc92s-12" edge="1"><mxGeometry width="160" relative="1" as="geometry"><mxPoint x="590" y="570" as="sourcePoint"/><mxPoint x="750" y="570" as="targetPoint"/><Array as="points"><mxPoint x="154" y="884"/></Array></mxGeometry></mxCell><mxCell id="EhmROlJ3hY4OZ1xslPFw-19" value="1" style="edgeLabel;html=1;align=center;verticalAlign=middle;resizable=0;points=[];" parent="EhmROlJ3hY4OZ1xslPFw-18" vertex="1" connectable="0"><mxGeometry x="-0.9234" relative="1" as="geometry"><mxPoint as="offset"/></mxGeometry></mxCell><mxCell id="EhmROlJ3hY4OZ1xslPFw-20" value="1..*" style="edgeLabel;html=1;align=center;verticalAlign=middle;resizable=0;points=[];" parent="EhmROlJ3hY4OZ1xslPFw-18" vertex="1" connectable="0"><mxGeometry x="0.7774" y="-1" relative="1" as="geometry"><mxPoint as="offset"/></mxGeometry></mxCell><mxCell id="EhmROlJ3hY4OZ1xslPFw-22" value="" style="endArrow=diamondThin;endFill=0;endSize=24;html=1;entryX=0.182;entryY=0.033;entryDx=0;entryDy=0;entryPerimeter=0;exitX=0.704;exitY=0.976;exitDx=0;exitDy=0;exitPerimeter=0;" parent="1" source="_PCVCd6CJYZOc_GiLcy5-5" target="5BSvQCHA-vjKsZ0vc92s-9" edge="1"><mxGeometry width="160" relative="1" as="geometry"><mxPoint x="590" y="570" as="sourcePoint"/><mxPoint x="750" y="570" as="targetPoint"/></mxGeometry></mxCell><mxCell id="EhmROlJ3hY4OZ1xslPFw-23" value="1" style="edgeLabel;html=1;align=center;verticalAlign=middle;resizable=0;points=[];" parent="EhmROlJ3hY4OZ1xslPFw-22" vertex="1" connectable="0"><mxGeometry x="-0.854" y="3" relative="1" as="geometry"><mxPoint y="1" as="offset"/></mxGeometry></mxCell><mxCell id="EhmROlJ3hY4OZ1xslPFw-24" value="1..*" style="edgeLabel;html=1;align=center;verticalAlign=middle;resizable=0;points=[];" parent="EhmROlJ3hY4OZ1xslPFw-22" vertex="1" connectable="0"><mxGeometry x="0.7068" y="1" relative="1" as="geometry"><mxPoint x="-1" as="offset"/></mxGeometry></mxCell><mxCell id="EhmROlJ3hY4OZ1xslPFw-25" value="" style="endArrow=open;endFill=1;endSize=12;html=1;exitX=0.126;exitY=1.009;exitDx=0;exitDy=0;exitPerimeter=0;entryX=0.862;entryY=0.013;entryDx=0;entryDy=0;entryPerimeter=0;" parent="1" source="QzNCbh0KWiswrqac5RrD-4" target="5BSvQCHA-vjKsZ0vc92s-13" edge="1"><mxGeometry width="160" relative="1" as="geometry"><mxPoint x="590" y="550" as="sourcePoint"/><mxPoint x="750" y="550" as="targetPoint"/></mxGeometry></mxCell><mxCell id="EhmROlJ3hY4OZ1xslPFw-27" value="" style="endArrow=diamondThin;endFill=0;endSize=24;html=1;entryX=1.014;entryY=0.345;entryDx=0;entryDy=0;entryPerimeter=0;" parent="1" target="5BSvQCHA-vjKsZ0vc92s-71" edge="1"><mxGeometry width="160" relative="1" as="geometry"><mxPoint x="510" y="401" as="sourcePoint"/><mxPoint x="750" y="570" as="targetPoint"/><Array as="points"><mxPoint x="510" y="500"/></Array></mxGeometry></mxCell><mxCell id="EhmROlJ3hY4OZ1xslPFw-28" value="1" style="edgeLabel;html=1;align=center;verticalAlign=middle;resizable=0;points=[];" parent="EhmROlJ3hY4OZ1xslPFw-27" vertex="1" connectable="0"><mxGeometry x="-0.5414" relative="1" as="geometry"><mxPoint as="offset"/></mxGeometry></mxCell><mxCell id="EhmROlJ3hY4OZ1xslPFw-29" value="1..*" style="edgeLabel;html=1;align=center;verticalAlign=middle;resizable=0;points=[];" parent="EhmROlJ3hY4OZ1xslPFw-27" vertex="1" connectable="0"><mxGeometry x="0.1374" y="1" relative="1" as="geometry"><mxPoint as="offset"/></mxGeometry></mxCell><mxCell id="EhmROlJ3hY4OZ1xslPFw-30" value="" style="endArrow=open;endFill=1;endSize=12;html=1;exitX=0.01;exitY=0.071;exitDx=0;exitDy=0;exitPerimeter=0;" parent="1" source="duW4ZWPWgtIntE0aElzq-4" target="_PCVCd6CJYZOc_GiLcy5-12" edge="1"><mxGeometry width="160" relative="1" as="geometry"><mxPoint x="590" y="450" as="sourcePoint"/><mxPoint x="750" y="450" as="targetPoint"/></mxGeometry></mxCell></root></mxGraphModel></diagram></mxfile>